custom-analysis
version=1
nRows=8
nColumns=42
inDegrees=no

This file contains tibia displacement and acting force.

Units are S.I. units (seconds, meters, Newtons, ...)
Angles are in degrees.

endheader
time	APT	SIT	knee_angle	aACL_R_force	pACL_R_force	aPCL_R_force	pPCL_R_force	aMCL_R_force	mMCL_R_force	pMCL_R_force	aLCL_R_force	mLCL_R_force	pLCL_R_force	aACL_R_length	pACL_R_length	aPCL_R_length	pPCL_R_length	aMCL_R_length	mMCL_R_length	pMCL_R_length	aLCL_R_length	mLCL_R_length	pLCL_R_length	aACL_R_strain	pACL_R_strain	aPCL_R_strain	pPCL_R_strain	aMCL_R_strain	mMCL_R_strain	pMCL_R_strain	aLCL_R_strain	mLCL_R_strain	pLCL_R_strain	femur_lat_meniscii_force_r	femur_lat_meniscii_torque_r	femur_med_meniscii_force_r	femur_med_meniscii_torque_r	femur_lat_tibia_force_r	femur_lat_tibia_torque_r	femur_med_tibia_force_r	femur_med_tibia_torque_r
      0.58657479	      0.00441435	     -0.00046376	     30.00011112	     52.35135905	     22.09709674	     19.52664893	      9.13830968	      0.33731511	      0.38899849	      0.00000000	      1.95447441	      0.00000000	      0.00000000	      0.03434133	      0.02709091	      0.03161614	      0.03035079	      0.05825540	      0.06010716	      0.05927687	      0.05612238	      0.05293656	      0.04923713	      0.08313482	      0.04765169	      0.01674984	      0.00874066	      0.00393611	      0.00524572	     -0.02389556	      0.00259349	     -0.06005184	     -0.05933149	     82.42567999	     22.80639838	     73.98890470	     23.87377923	      0.00000000	      0.00000000	      0.00000000	      0.00000000
      0.58773644	      0.00441542	     -0.00046460	     30.00011112	     52.35992448	     22.10396611	     19.50301838	      8.99936470	      0.19955087	      0.25272968	      0.00000000	      1.75126999	      0.00000000	      0.00000000	      0.03434272	      0.02709228	      0.03161668	      0.03035123	      0.05825554	      0.06010726	      0.05927701	      0.05612455	      0.05293879	      0.04923935	      0.08317855	      0.04770479	      0.01676708	      0.00875523	      0.00393854	      0.00524732	     -0.02389327	      0.00263229	     -0.06001231	     -0.05928910	     82.34811306	     22.78461755	     74.03595925	     23.89019914	      0.00000000	      0.00000000	      0.00000000	      0.00000000
      0.58889809	      0.00441640	     -0.00046534	     30.00011112	     52.35377144	     22.09416122	     19.46685980	      8.84131236	      0.05131542	      0.10541958	      0.00000000	      1.53447408	      0.00000000	      0.00000000	      0.03434402	      0.02709359	      0.03161711	      0.03035156	      0.05825556	      0.06010724	      0.05927703	      0.05612657	      0.05294086	      0.04924141	      0.08321972	      0.04775539	      0.01678113	      0.00876643	      0.00393893	      0.00524699	     -0.02389297	      0.00266835	     -0.05997560	     -0.05924976	     82.27009364	     22.75082216	     74.09332201	     23.91002796	      0.00000000	      0.00000000	      0.00000000	      0.00000000
      0.59258048	      0.00441911	     -0.00046684	     30.00011112	     52.40827247	     22.13900209	     19.48219135	      8.77204554	     -0.05318257	      0.00408201	      0.00000000	      1.32748687	      0.00000000	      0.00000000	      0.03434740	      0.02709703	      0.03161781	      0.03035194	      0.05825483	      0.06010638	      0.05927627	      0.05613193	      0.05294636	      0.04924688	      0.08332639	      0.04788824	      0.01680347	      0.00877892	      0.00392625	      0.00523262	     -0.02390538	      0.00276420	     -0.05987788	     -0.05914521	     82.00156639	     22.67836236	     74.28699182	     23.96722264	      0.00000000	      0.00000000	      0.00000000	      0.00000000
      0.59648558	      0.00442145	     -0.00046829	     30.00011112	     52.44422104	     22.16249310	     19.44618624	      8.55968153	     -0.23280555	     -0.17481164	      0.00000000	      1.00170650	      0.00000000	      0.00000000	      0.03435054	      0.02710025	      0.03161859	      0.03035240	      0.05825401	      0.06010544	      0.05927543	      0.05613723	      0.05295178	      0.04925227	      0.08342537	      0.04801283	      0.01682869	      0.00879414	      0.00391210	      0.00521698	     -0.02391923	      0.00285884	     -0.05978160	     -0.05904217	     81.92536675	     22.61146492	     74.49541916	     24.03623865	      0.00000000	      0.00000000	      0.00000000	      0.00000000
      0.59970800	      0.00442339	     -0.00046883	     30.00011112	     52.64013836	     22.35559868	     19.62867184	      9.02798540	      0.15279978	      0.21332866	      0.00000000	      1.43520256	      0.00000000	      0.00000000	      0.03435269	      0.02710247	      0.03161857	      0.03035211	      0.05825277	      0.06010411	      0.05927418	      0.05614070	      0.05295535	      0.04925582	      0.08349306	      0.04809869	      0.01682789	      0.00878478	      0.00389079	      0.00519477	     -0.02393987	      0.00292088	     -0.05971822	     -0.05897448	     81.66305418	     22.53410229	     74.63754124	     24.08457204	      0.00000000	      0.00000000	      0.00000000	      0.00000000
      0.60213354	      0.00442465	     -0.00046984	     30.00011112	     52.77137068	     22.48806434	     19.74517497	      9.24665554	      0.31289338	      0.37610989	      0.00000000	      1.58022632	      0.00000000	      0.00000000	      0.03435463	      0.02710447	      0.03161915	      0.03035252	      0.05825249	      0.06010378	      0.05927389	      0.05614381	      0.05295853	      0.04925897	      0.08355419	      0.04817600	      0.01684669	      0.00879815	      0.00388602	      0.00518911	     -0.02394468	      0.00297645	     -0.05966180	     -0.05891415	     81.44386576	     22.47136419	     74.64992958	     24.08904631	      0.00000000	      0.00000000	      0.00000000	      0.00000000
      0.60388329	      0.00442528	     -0.00047127	     30.00011112	     52.88148313	     22.61355338	     19.77428424	      9.17637369	      0.23883938	      0.30574856	      0.00000000	      1.43608647	      0.00000000	      0.00000000	      0.03435655	      0.02710649	      0.03162017	      0.03035340	      0.05825293	      0.06010418	      0.05927430	      0.05614661	      0.05296136	      0.04926178	      0.08361489	      0.04825425	      0.01687949	      0.00882759	      0.00389355	      0.00519586	     -0.02393790	      0.00302637	     -0.05961160	     -0.05886051	     82.15559417	     22.69130699	     74.56888659	     24.06178127	      0.00000000	      0.00000000	      0.00000000	      0.00000000
